<?xml version="1.0" encoding="UTF-8" standalone="no"?>
<!DOCTYPE svg PUBLIC "-//W3C//DTD SVG 1.1//EN" "http://www.w3.org/Graphics/SVG/1.1/DTD/svg11.dtd">
<svg width="100%" height="100%" viewBox="0 0 48 45" version="1.1" xmlns="http://www.w3.org/2000/svg" xmlns:xlink="http://www.w3.org/1999/xlink" xml:space="preserve" xmlns:serif="http://www.serif.com/" style="fill-rule:evenodd;clip-rule:evenodd;stroke-linejoin:round;stroke-miterlimit:2;">
    <g transform="matrix(1,0,0,1,-0.099237,-2.176409)">
        <g transform="matrix(1.195518,0,0,1.195518,-4.094663,15.2596)">
            <path d="M34.159,19.096C36.274,17.896 38.193,16.335 39.821,14.457C40.577,13.585 41.899,13.491 42.771,14.247C43.643,15.003 43.737,16.325 42.981,17.197C38.084,22.846 30.976,26.091 23.5,26.091C16.024,26.091 8.916,22.846 4.019,17.197C3.263,16.325 3.357,15.003 4.229,14.247C5.101,13.491 6.423,13.585 7.179,14.457C8.552,16.042 10.133,17.4 11.863,18.507L11.863,-7.208C11.863,-9.894 12.986,-10.944 15.867,-10.944L23.924,-10.944C30.491,-10.944 34.617,-7.086 34.617,-0.983C34.617,3.339 32.249,6.83 28.441,8.197L34.08,18.915C34.107,18.972 34.134,19.033 34.159,19.096ZM16.098,20.601C18.444,21.457 20.946,21.909 23.5,21.909C25.781,21.909 28.021,21.548 30.146,20.861C30.083,20.748 30.019,20.629 29.954,20.502L24.217,9.125L16.111,9.125L16.111,20.282C16.111,20.391 16.107,20.498 16.098,20.601ZM16.111,5.414L23.216,5.414C27.781,5.414 30.247,3.265 30.247,-0.763C30.247,-4.816 27.708,-7.159 23.387,-7.159L16.111,-7.159L16.111,5.414Z"/>
        </g>
    </g>
    <style>
        @media (prefers-color-scheme: dark) {
            svg {
                fill: #fff;
                stroke: #fff;
            }
        }
    </style>
</svg>
